<svg width="28" height="34" viewBox="0 0 28 34" fill="none" xmlns="http://www.w3.org/2000/svg">
<path d="M13.6374 33.66C13.9041 33.66 14.3209 33.5599 14.7377 33.3432C24.2238 28.3751 27.2748 25.891 27.2748 19.9059V7.33553C27.2748 5.61835 26.5411 5.06819 25.1408 4.48468C23.1902 3.68444 16.9551 1.41711 15.0211 0.750249C14.571 0.600204 14.1042 0.516846 13.6374 0.516846C13.1706 0.516846 12.7038 0.616876 12.2703 0.750249C10.3197 1.38377 4.08453 3.70112 2.13396 4.48468C0.750222 5.05152 0 5.61835 0 7.33553V19.9059C0 25.891 3.21762 28.0917 12.537 33.3432C12.9705 33.5767 13.3706 33.66 13.6374 33.66ZM6.11847 17.6385C6.11847 17.4385 6.2185 17.1884 6.40189 16.9717L15.8213 5.15154C16.5382 4.25128 17.7386 4.85146 17.3052 5.96845L14.2042 14.3043H20.0226C20.4727 14.3043 20.8061 14.6209 20.8061 15.0712C20.8061 15.2712 20.7061 15.5213 20.5228 15.738L11.1033 27.5582C10.3864 28.4584 9.20272 27.8582 9.61951 26.7579L12.7371 18.4055H6.90203C6.46858 18.4055 6.11847 18.0886 6.11847 17.6385Z" fill="#B97AE0"/>
</svg>
