<svg width="36" height="27" viewBox="0 0 36 27" fill="none" xmlns="http://www.w3.org/2000/svg">
<path d="M6.33747 21.8223L6.74664 23.4589C7.26492 25.5867 8.39696 26.6778 10.6474 26.6778H25.3365C27.6007 26.6778 28.719 25.6139 29.2509 23.4589L29.6601 21.8223H6.33747ZM5.88739 19.9538H30.1238L32.6879 9.45179L31.5695 8.81076L25.282 13.3934C24.8182 13.7208 24.5046 13.598 24.2454 13.2298L18.3261 4.28264L17.6714 4.25535L11.6976 13.2707C11.4657 13.6253 11.1929 13.7345 10.7292 13.4071L4.56441 8.90623L3.25507 9.24721L5.88739 19.9538ZM3.75971 12.1795C5.56006 12.1795 7.00578 10.7202 7.00578 8.90623C7.00578 7.13318 5.56006 5.66017 3.75971 5.66017C1.95937 5.66017 0.5 7.11954 0.5 8.90623C0.5 10.7202 1.973 12.1795 3.75971 12.1795ZM17.9988 6.50578C19.7855 6.50578 21.2448 5.04642 21.2448 3.24607C21.2448 1.473 19.7855 0 17.9988 0C16.1848 0 14.7391 1.45937 14.7391 3.24607C14.7391 5.04642 16.1985 6.50578 17.9988 6.50578ZM32.2242 12.1795C34.011 12.1795 35.4839 10.7202 35.4839 8.90623C35.4839 7.11954 34.0246 5.66017 32.2242 5.66017C30.4376 5.66017 28.9782 7.13318 28.9782 8.90623C28.9782 10.7202 30.4376 12.1795 32.2242 12.1795Z" fill="#B97AE0"/>
</svg>
