<svg width="31" height="37" viewBox="0 0 31 37" fill="none" xmlns="http://www.w3.org/2000/svg">
<path d="M15.3632 36.4339C21.0479 36.4339 25.6344 31.8474 25.6344 26.1788C25.6344 20.4941 21.0479 15.9076 15.3632 15.9076C9.69462 15.9076 5.10807 20.4941 5.10807 26.1788C5.10807 31.8474 9.69462 36.4339 15.3632 36.4339ZM12.4401 31.4597C11.8264 31.9119 11.1804 31.4436 11.4226 30.733L12.5854 27.2607L9.61386 25.1452C9.04862 24.7253 9.22626 23.934 10.0015 23.934L13.6513 23.9662L14.7657 20.4779C14.9917 19.7674 15.7669 19.7674 15.993 20.4779L17.1074 23.9662L20.7571 23.934C21.5323 23.934 21.6939 24.7414 21.1448 25.1291L18.1732 27.2607L19.336 30.733C19.5783 31.4436 18.9322 31.9119 18.3186 31.4597L15.3793 29.3118L12.4401 31.4597ZM5.52797 18.4915C7.11065 16.4889 9.29087 14.9709 11.7941 14.2279L4.47824 1.08203L0.230846 7.5581C-0.0598491 7.97798 -0.0759989 8.44633 0.182397 8.86622L5.52797 18.4915ZM11.7456 8.72087H18.9969L23.9225 0H6.81995L11.7456 8.72087ZM18.9484 14.2279C21.4678 14.9709 23.6319 16.4889 25.2145 18.4915L30.5762 8.86622C30.8185 8.44633 30.8024 7.97798 30.5117 7.5581L26.2642 1.08203L18.9484 14.2279Z" fill="#B97AE0"/>
</svg>
