<svg width="38" height="24" viewBox="0 0 38 24" fill="none" xmlns="http://www.w3.org/2000/svg">
<path d="M14.2112 23.1936H28.4336C30.21 23.1936 30.8436 22.6926 30.8436 21.7127C30.8436 18.84 27.189 14.8761 21.3167 14.8761C15.4557 14.8761 11.8012 18.84 11.8012 21.7127C11.8012 22.6926 12.4347 23.1936 14.2112 23.1936ZM21.328 12.883C23.7607 12.883 25.8538 10.7452 25.8538 7.96164C25.8538 5.21143 23.7494 3.17383 21.328 3.17383C18.9067 3.17383 16.8022 5.25597 16.8022 7.98391C16.8022 10.7452 18.8954 12.883 21.328 12.883ZM1.99137 23.1936H10.5905C9.41375 21.5123 10.8507 18.1274 13.2833 16.2791C12.0274 15.4552 10.4094 14.8427 8.2936 14.8427C3.19072 14.8427 0 18.5505 0 21.6348C0 22.6369 0.565731 23.1936 1.99137 23.1936ZM8.30492 13.1392C10.4094 13.1392 12.2424 11.2686 12.2424 8.85239C12.2424 6.45849 10.3981 4.68811 8.30492 4.68811C6.20041 4.68811 4.34481 6.50303 4.35613 8.87467C4.35613 11.2686 6.18909 13.1392 8.30492 13.1392ZM29.7008 12.5491C30.0856 12.8051 30.6173 12.7272 30.9228 12.2929C31.7941 11.1683 32.3146 9.50938 32.3146 7.80576C32.3146 6.10219 31.7941 4.45429 30.9228 3.31858C30.6173 2.88433 30.0856 2.80639 29.7008 3.06248C29.2483 3.37425 29.169 3.93098 29.5311 4.38749C30.1873 5.27824 30.5607 6.51417 30.5607 7.80576C30.5607 9.09736 30.1761 10.3221 29.5311 11.224C29.1804 11.6917 29.2483 12.2261 29.7008 12.5491ZM33.8986 15.4552C34.3172 15.7335 34.8376 15.6333 35.1431 15.2102C36.5914 13.2506 37.44 10.556 37.44 7.80576C37.44 5.05555 36.6028 2.33875 35.1431 0.401352C34.8376 -0.0217578 34.3172 -0.121968 33.8986 0.156393C33.4799 0.434755 33.4121 0.958073 33.7402 1.41459C34.9735 3.12929 35.6862 5.43412 35.6862 7.80576C35.6862 10.1774 34.9508 12.4711 33.7402 14.1969C33.4234 14.6534 33.4799 15.1768 33.8986 15.4552Z" fill="#B97AE0"/>
</svg>
