<svg width="35" height="35" viewBox="0 0 35 35" fill="none" xmlns="http://www.w3.org/2000/svg">
<path d="M16.75 6.89489C16.75 6.30297 16.4399 5.76794 16.0813 5.297C15.7132 4.8135 15.5 4.24 15.5 3.625C15.5 1.89911 17.1789 0.5 19.25 0.5C21.3211 0.5 23 1.89911 23 3.625C23 4.24 22.7868 4.8135 22.4187 5.297C22.0601 5.76794 21.75 6.30297 21.75 6.8949C21.75 7.44881 22.2128 7.891 22.7658 7.858C25.9501 7.66799 29.0831 7.28881 32.1536 6.73164C32.4915 6.67032 32.8398 6.75074 33.1166 6.95401C33.3935 7.15729 33.5744 7.4655 33.6171 7.80628C33.9905 10.7887 34.2021 13.821 34.2431 16.8941C34.2513 17.5047 33.7556 17.9998 33.1449 18C32.553 18 32.0179 17.6899 31.547 17.3313C31.0635 16.9632 30.49 16.75 29.875 16.75C28.1491 16.75 26.75 18.4289 26.75 20.5C26.75 22.5711 28.1491 24.25 29.875 24.25C30.49 24.25 31.0635 24.0368 31.547 23.6687C32.0179 23.3101 32.553 23 33.1449 23C33.6623 23 34.0731 23.4361 34.0357 23.9521C33.8379 26.6831 33.5051 29.3769 33.0439 32.0269C32.9535 32.5466 32.5465 32.9536 32.0267 33.044C28.9949 33.5717 25.9057 33.9312 22.7691 34.1128C22.2141 34.1449 21.75 33.7008 21.75 33.1449C21.75 32.553 22.0601 32.0179 22.4187 31.547C22.7868 31.0635 23 30.49 23 29.875C23 28.1491 21.3211 26.75 19.25 26.75C17.1789 26.75 15.5 28.1491 15.5 29.875C15.5 30.49 15.7132 31.0635 16.0813 31.547C16.4399 32.0179 16.75 32.553 16.75 33.1449C16.75 33.7475 16.2566 34.2342 15.6542 34.2171C13.005 34.142 10.3873 33.94 7.80689 33.6169C7.4661 33.5743 7.15789 33.3933 6.95462 33.1164C6.75135 32.8396 6.67093 32.4913 6.73225 32.1534C7.22038 29.4635 7.57191 26.7256 7.77933 23.9472C7.81763 23.4342 7.40938 23 6.89489 23C6.30297 23 5.76794 23.3101 5.297 23.6687C4.8135 24.0368 4.24 24.25 3.625 24.25C1.89911 24.25 0.5 22.5711 0.5 20.5C0.5 18.4289 1.89911 16.75 3.625 16.75C4.24 16.75 4.8135 16.9632 5.297 17.3313C5.76794 17.6899 6.30297 18 6.8949 18C7.5055 18 8.00129 17.505 7.99289 16.8944C7.95557 14.1807 7.78103 11.5004 7.47598 8.86047C7.43217 8.48134 7.56397 8.10297 7.83384 7.8331C8.1037 7.56324 8.48207 7.43144 8.8612 7.47525C11.0984 7.73376 13.3643 7.89854 15.6551 7.96552C16.2569 7.98312 16.75 7.49695 16.75 6.89489Z" fill="#B97AE0"/>
</svg>
