<svg width="37" height="36" viewBox="0 0 37 36" fill="none" xmlns="http://www.w3.org/2000/svg">
<path fill-rule="evenodd" clip-rule="evenodd" d="M33.3305 0.5C32.7048 0.5 32.0932 0.685189 31.5726 1.03223L23.1076 6.67555C20.7805 8.22699 18.6805 10.0782 16.8582 12.1743C20.3829 13.775 23.2244 16.6166 24.8251 20.1413C26.9212 18.319 28.7724 16.219 30.3239 13.8918L35.9672 5.42681C36.3143 4.90625 36.4994 4.29462 36.4994 3.66898C36.4994 1.9188 35.0806 0.5 33.3305 0.5ZM19.4987 23.8748C20.7962 23.154 22.0368 22.3438 23.2122 21.4519C21.7921 17.981 19.0185 15.2073 15.5475 13.7872C14.6556 14.9627 13.8455 16.2033 13.1246 17.5008L12.6604 18.3364C15.5546 19.1642 17.8353 21.4449 18.6631 24.339L19.4987 23.8748ZM10.2494 20.5C6.79762 20.5 3.99944 23.2982 3.99944 26.75C3.99944 28.1307 2.88016 29.25 1.49944 29.25C1.44283 29.25 1.38649 29.2481 1.33051 29.2444C0.870257 29.214 0.430647 29.4395 0.186875 29.8311C-0.0568976 30.2226 -0.0652117 30.7167 0.165246 31.1162C1.67491 33.7336 4.50512 35.5 7.74944 35.5C12.5819 35.5 16.4994 31.5825 16.4994 26.75C16.4994 23.2982 13.7013 20.5 10.2494 20.5Z" fill="#B97AE0"/>
</svg>
