<svg width="34" height="26" viewBox="0 0 34 26" fill="none" xmlns="http://www.w3.org/2000/svg">
<path d="M12.285 15.7297C12.285 15.5887 12.3571 15.4618 12.4724 15.3207L18.4275 7.9989C18.8744 7.4346 19.6242 7.81551 19.3647 8.50677L17.4037 13.656H21.0806C21.3546 13.656 21.5997 13.8675 21.5997 14.1216C21.5997 14.2626 21.5276 14.4178 21.3978 14.5447L15.4572 21.8523C15.0102 22.4167 14.2459 22.0358 14.5056 21.3586L16.4809 16.1953H12.7896C12.5157 16.1953 12.285 15.9978 12.285 15.7297ZM4.52757 25.9717H29.4724C32.5005 25.9717 34 24.5187 34 21.6125V7.97068C34 5.06456 32.5005 3.6115 29.4724 3.6115H27.4826V1.72111C27.4826 0.64894 26.8482 0 25.738 0H21.4843C20.3885 0 19.7541 0.64894 19.7541 1.72111V3.6115H14.2603V1.72111C14.2603 0.64894 13.6259 0 12.5157 0H8.26209C7.15183 0 6.53181 0.64894 6.53181 1.72111V3.6115H4.52757C1.514 3.6115 0 5.06456 0 7.97068V21.6125C0 24.5187 1.514 25.9717 4.52757 25.9717Z" fill="#B97AE0"/>
</svg>
